<?xml version="1.0" encoding="utf-8"?>
<!-- Generator: Adobe Illustrator 19.2.1, SVG Export Plug-In . SVG Version: 6.00 Build 0)  -->
<svg version="1.1" id="Layer_1" xmlns="http://www.w3.org/2000/svg" xmlns:xlink="http://www.w3.org/1999/xlink" x="0px" y="0px"
	 viewBox="0 0 228.3 35" style="enable-background:new 0 0 228.3 35;" xml:space="preserve">
<style type="text/css">
	.st0{fill:url(#SVGID_1_);}
	.st1{fill:#EDA33A;}
	.st2{fill:#EC8A00;}
	.st3{fill:#FFFFFF;}
</style>
<g>
	<g>
		<linearGradient id="SVGID_1_" gradientUnits="userSpaceOnUse" x1="114.1669" y1="34.3335" x2="114.1669" y2="0.6665">
			<stop  offset="0" style="stop-color:#EC8A00"/>
			<stop  offset="0.1264" style="stop-color:#F09914"/>
			<stop  offset="0.3492" style="stop-color:#F7AE31"/>
			<stop  offset="0.571" style="stop-color:#FBBD45"/>
			<stop  offset="0.7893" style="stop-color:#FEC652"/>
			<stop  offset="1" style="stop-color:#FFC956"/>
		</linearGradient>
		<path class="st0" d="M4.6,34.3c-2.2,0-3.9-1.8-3.9-3.9V4.6c0-2.2,1.8-3.9,3.9-3.9h219.1c2.2,0,4,1.8,4,3.9v25.8
			c0,2.2-1.8,3.9-4,3.9H4.6z"/>
		<path class="st1" d="M223.7,1.3c1.8,0,3.3,1.5,3.3,3.3v25.8c0,1.8-1.5,3.3-3.3,3.3H4.6c-1.8,0-3.3-1.5-3.3-3.3V4.6
			c0-1.8,1.5-3.3,3.3-3.3H223.7 M223.7,0H4.6C2.1,0,0,2.1,0,4.6v25.8C0,32.9,2.1,35,4.6,35h219.1c2.6,0,4.6-2.1,4.6-4.6V4.6
			C228.3,2.1,226.3,0,223.7,0L223.7,0z"/>
	</g>
	<g>
		<g>
			<path class="st2" d="M56.2,24.3h-2.5V12.4h4.6c1.7,0,2.8,1.1,2.8,3.1c0,1.5-0.6,2.7-2.2,2.9v0c0.5,0.1,2.2,0.2,2.2,2.3
				c0,0.8,0,3,0.3,3.5h-2.4c-0.3-0.7-0.3-1.5-0.3-2.3c0-1.4,0.1-2.6-1.8-2.6h-0.6V24.3z M56.2,17.5h1.1c1,0,1.3-1,1.3-1.8
				c0-1.1-0.5-1.6-1.3-1.6h-1.1V17.5z"/>
			<path class="st2" d="M62.9,24.3V12.4h6.5v1.8h-4v2.9h3.7V19h-3.7v3.5h4.1v1.8H62.9z"/>
			<path class="st2" d="M80.2,24.3h-3.5c-0.2,0-0.5,0-0.7,0c-0.2,0-0.5,0.1-0.7,0.1c-3.7,0-4.1-1.9-4.1-6.1c0-3.2,0-6.2,4.1-6.2
				c4.1,0,4.1,3,4.1,6.2c0,2.6-0.5,3.7-1.5,4.5l0,0c0.4-0.1,1-0.4,1.3-0.4h1V24.3z M76.8,18.3c0-3.1-0.2-4.4-1.6-4.4
				c-1.4,0-1.6,1.3-1.6,4.4c0,3,0.2,4.3,1.6,4.3C76.6,22.6,76.8,21.3,76.8,18.3z"/>
			<path class="st2" d="M89.3,12.4v8.5c0,1.8-1,3.7-4,3.7c-2.7,0-4.1-1.4-4.1-3.7v-8.5h2.5v8.3c0,1.5,0.6,2,1.5,2
				c1.1,0,1.6-0.7,1.6-2v-8.3H89.3z"/>
			<path class="st2" d="M91.3,24.3V12.4h6.5v1.8h-4v2.9h3.7V19h-3.7v3.5H98v1.8H91.3z"/>
			<path class="st2" d="M102.8,24.5c-3.1,0-3.7-1.8-3.5-3.9h2.5c0,1.1,0.1,2.1,1.4,2.1c0.8,0,1.3-0.5,1.3-1.4c0-2.1-5-2.3-5-5.8
				c0-1.9,0.9-3.4,3.9-3.4c2.4,0,3.6,1.1,3.5,3.6h-2.4c0-0.9-0.1-1.8-1.2-1.8c-0.8,0-1.3,0.4-1.3,1.3c0,2.3,5,2.1,5,5.8
				C107,24.1,104.7,24.5,102.8,24.5z"/>
			<path class="st2" d="M115.9,12.4v2h-2.8v9.9h-2.5v-9.9h-2.8v-2H115.9z"/>
			<path class="st2" d="M119.8,24.3l3.3-11.9h3.3l3.2,11.9H127l-0.7-2.6h-3.4l-0.7,2.6H119.8z M124.6,14.7L124.6,14.7l-1.2,5.2h2.4
				L124.6,14.7z"/>
			<path class="st2" d="M134.5,12.4h4.2c3.3,0,3.9,2.2,3.9,5.9c0,1.8,0.3,6-4,6h-4.1V12.4z M137,22.5h1.2c1.5,0,1.8-1.1,1.8-4.1
				c0-2.2,0-4.1-1.7-4.1H137V22.5z"/>
			<path class="st2" d="M144.5,24.3V12.4h6.5v1.8h-4v2.9h3.7V19H147v3.5h4.1v1.8H144.5z"/>
			<path class="st2" d="M152.7,24.3V12.4h4l1.9,8.1h0l2-8.1h3.9v11.9h-2.4v-9.2h0l-2.3,9.2h-2.4l-2.2-9.2h0v9.2H152.7z"/>
			<path class="st2" d="M166.4,18.3c0-3.2,0-6.2,4.1-6.2c4.1,0,4.1,3,4.1,6.2c0,3.1,0,6.2-4.1,6.2C166.4,24.5,166.4,21.5,166.4,18.3
				z M172.1,18.3c0-3.1-0.2-4.4-1.6-4.4c-1.4,0-1.6,1.3-1.6,4.4s0.2,4.4,1.6,4.4C171.9,22.7,172.1,21.4,172.1,18.3z"/>
		</g>
		<g>
			<path class="st3" d="M56.2,22.6h-2.5V10.7h4.6c1.7,0,2.8,1.1,2.8,3.1c0,1.5-0.6,2.7-2.2,2.9v0c0.5,0.1,2.2,0.2,2.2,2.3
				c0,0.8,0,3,0.3,3.5h-2.4c-0.3-0.7-0.3-1.5-0.3-2.3c0-1.4,0.1-2.6-1.8-2.6h-0.6V22.6z M56.2,15.8h1.1c1,0,1.3-1,1.3-1.8
				c0-1.1-0.5-1.6-1.3-1.6h-1.1V15.8z"/>
			<path class="st3" d="M62.9,22.6V10.7h6.5v1.8h-4v2.9h3.7v1.8h-3.7v3.5h4.1v1.8H62.9z"/>
			<path class="st3" d="M80.2,22.6h-3.5c-0.2,0-0.5,0-0.7,0c-0.2,0-0.5,0.1-0.7,0.1c-3.7,0-4.1-1.9-4.1-6.1c0-3.2,0-6.2,4.1-6.2
				c4.1,0,4.1,3,4.1,6.2c0,2.6-0.5,3.7-1.5,4.5l0,0c0.4-0.1,1-0.4,1.3-0.4h1V22.6z M76.8,16.7c0-3.1-0.2-4.4-1.6-4.4
				c-1.4,0-1.6,1.3-1.6,4.4c0,3,0.2,4.3,1.6,4.3C76.6,21,76.8,19.6,76.8,16.7z"/>
			<path class="st3" d="M89.3,10.7v8.5c0,1.8-1,3.7-4,3.7c-2.7,0-4.1-1.4-4.1-3.7v-8.5h2.5V19c0,1.5,0.6,2,1.5,2
				c1.1,0,1.6-0.7,1.6-2v-8.3H89.3z"/>
			<path class="st3" d="M91.3,22.6V10.7h6.5v1.8h-4v2.9h3.7v1.8h-3.7v3.5H98v1.8H91.3z"/>
			<path class="st3" d="M102.8,22.8c-3.1,0-3.7-1.8-3.5-3.9h2.5c0,1.1,0.1,2.1,1.4,2.1c0.8,0,1.3-0.5,1.3-1.4c0-2.1-5-2.3-5-5.8
				c0-1.9,0.9-3.4,3.9-3.4c2.4,0,3.6,1.1,3.5,3.6h-2.4c0-0.9-0.1-1.8-1.2-1.8c-0.8,0-1.3,0.4-1.3,1.3c0,2.3,5,2.1,5,5.8
				C107,22.5,104.7,22.8,102.8,22.8z"/>
			<path class="st3" d="M115.9,10.7v2h-2.8v9.9h-2.5v-9.9h-2.8v-2H115.9z"/>
			<path class="st3" d="M119.8,22.6l3.3-11.9h3.3l3.2,11.9H127l-0.7-2.6h-3.4l-0.7,2.6H119.8z M124.6,13L124.6,13l-1.2,5.2h2.4
				L124.6,13z"/>
			<path class="st3" d="M134.5,10.7h4.2c3.3,0,3.9,2.2,3.9,5.9c0,1.8,0.3,6-4,6h-4.1V10.7z M137,20.8h1.2c1.5,0,1.8-1.1,1.8-4.1
				c0-2.2,0-4.1-1.7-4.1H137V20.8z"/>
			<path class="st3" d="M144.5,22.6V10.7h6.5v1.8h-4v2.9h3.7v1.8H147v3.5h4.1v1.8H144.5z"/>
			<path class="st3" d="M152.7,22.6V10.7h4l1.9,8.1h0l2-8.1h3.9v11.9h-2.4v-9.2h0l-2.3,9.2h-2.4l-2.2-9.2h0v9.2H152.7z"/>
			<path class="st3" d="M166.4,16.7c0-3.2,0-6.2,4.1-6.2c4.1,0,4.1,3,4.1,6.2c0,3.1,0,6.2-4.1,6.2C166.4,22.8,166.4,19.8,166.4,16.7
				z M172.1,16.7c0-3.1-0.2-4.4-1.6-4.4c-1.4,0-1.6,1.3-1.6,4.4s0.2,4.4,1.6,4.4C171.9,21,172.1,19.7,172.1,16.7z"/>
		</g>
	</g>
</g>
</svg>
