<svg id="content.01" xmlns="http://www.w3.org/2000/svg" viewBox="0 0 276 179.62"><defs><style>.cls-1{fill:#d5d5d5;}.cls-2{fill:#f0f0f0;}.cls-3{font-size:14px;fill:#797979;font-weight:700;}.cls-10,.cls-14,.cls-3{font-family:Univers LT Std;}.cls-14,.cls-4{fill:#333;}.cls-4{opacity:0.2;}.cls-5{fill:#fff;stroke:#000;stroke-miterlimit:10;}.cls-6,.cls-7{fill:#999;}.cls-6,.cls-8{fill-rule:evenodd;}.cls-8{fill:#800;}.cls-9{fill:#009dda;}.cls-10{font-size:12px;}.cls-10,.cls-13{fill:#666;}.cls-11{white-space:pre;}.cls-12{fill:#08f;}.cls-14{font-size:16px;}.cls-15{letter-spacing:-1px;}</style></defs><title>innovationsLandingPageIdeation.03.CS5</title><rect class="cls-1" y="177.62" width="276" height="1"/><rect class="cls-2" y="178.62" width="276" height="1"/><text class="cls-3" transform="translate(0 11.62)">Y<tspan x="6.87" y="0">ou might also be interested in...</tspan></text><path class="cls-4" d="M880,565.62c19-.49,37-5.95,55-5.95v-53c-18,0-36,5.46-55,5.95v53Z" transform="translate(-852 -468.38)"/><path class="cls-5" d="M933.5,503.55c-19,0-38.25,6-58,6v54c19.75,0,39-6,58-6v-54Z" transform="translate(-852 -468.38)"/><g id="XMrHip"><path class="cls-6" d="M885.51,551.88c-0.18.45-.34,0.91-0.55,1.35a0.87,0.87,0,0,1-.42.41,0.43,0.43,0,0,1-.59-0.33c-0.16-.45-0.36-0.88-0.54-1.32l-0.16,0c0,0.17,0,.33,0,0.49,0,0.91,0,1.81,0,2.72a0.37,0.37,0,0,1-.46.46,7.32,7.32,0,0,0-.94,0,0.33,0.33,0,0,1-.4-0.4q0-4,0-8.05a0.35,0.35,0,0,1,.41-0.42c1.32-.08,1.32-0.1,1.7,1.16l0.72,2.38a0.77,0.77,0,0,0,.28.42c0.05-.14.11-0.29,0.16-0.43,0.32-1.05.65-2.1,0.93-3.17a0.61,0.61,0,0,1,.64-0.54c1.25-.08,1.25-0.1,1.25,1.15q0,3.48,0,7c0,0.66,0,.66-0.63.71-1.15.08-1.15,0.08-1.15-1.09,0-.68,0-1.35,0-2,0-.15,0-0.3,0-0.45Z" transform="translate(-852 -468.38)"/><path class="cls-6" d="M896.4,550.61v2.69c0,1.09,0,1.09-1.09,1.25-0.69.1-.69,0.1-0.69-0.6,0-2.54,0-5.07,0-7.6a0.52,0.52,0,0,1,.54-0.65c1-.11.78-0.15,1.09,0.58s0.71,1.67,1.06,2.49a4.69,4.69,0,0,0,.23.42l0.14,0c0-.17,0-0.33,0-0.5,0-.94,0-1.88,0-2.81a0.49,0.49,0,0,1,.5-0.6c1.28-.2,1.28-0.22,1.28,1.06,0,2.35,0,4.71,0,7.06a0.52,0.52,0,0,1-.55.64c-0.91.1-.74,0.24-1.09-0.56L896.8,551a4.53,4.53,0,0,0-.23-0.42Z" transform="translate(-852 -468.38)"/><path class="cls-6" d="M893.37,551c0,1.12,0,2.24,0,3.35a0.47,0.47,0,0,1-.49.58c-1.29.15-1.31,0.17-1.29-1.13,0-.42-0.1-0.56-0.55-0.51a0.51,0.51,0,0,0-.56.63c0,1.31,0,1.31-1.32,1.43-0.34,0-.46-0.06-0.46-0.4,0-2.25,0-4.5,0-6.76a1.64,1.64,0,0,1,1.72-1.83c0.46-.05.92-0.11,1.38-0.15a1.2,1.2,0,0,1,1.53,1.3c0,1.16,0,2.33,0,3.5h0Zm-1.79-1.24c0-.54,0-1.08,0-1.63,0-.37-0.19-0.39-0.46-0.32s-0.64-.09-0.63.43c0,1.08,0,2.17,0,3.25,0,0.51.38,0.28,0.64,0.29a0.37,0.37,0,0,0,.46-0.44C891.57,550.77,891.59,550.24,891.59,549.71Z" transform="translate(-852 -468.38)"/><path class="cls-6" d="M924.28,546c0-.91,0-1.81,0-2.72A1.59,1.59,0,0,1,926,541.4c0.46,0,.92,0,1.38,0a1.4,1.4,0,0,1,1.64,1.57c0,1.17,0,2.34,0,3.51,0,0.71,0,1.42,0,2.12a1.49,1.49,0,0,1-1.7,1.66l-1.43.05a1.37,1.37,0,0,1-1.65-1.5s0-.07,0-0.1V546Zm3-3.07a5.78,5.78,0,0,1-.62,0c-0.46,0-.63.13-0.62,0.62q0,2.34,0,4.68c0,0.49.19,0.57,0.61,0.54s0.66,0,.64-0.55c0-1.16,0-2.33,0-3.5v-1.8Z" transform="translate(-852 -468.38)"/><path class="cls-6" d="M915.63,549.76a5.89,5.89,0,0,0,.84-0.13,0.52,0.52,0,0,0,.26-0.35,7.94,7.94,0,0,0,0-1.38,0.49,0.49,0,0,0-.39-0.33,5.14,5.14,0,0,0-.93.09,1.32,1.32,0,0,1-1.61-1.31,21.61,21.61,0,0,1,0-2.32,1.55,1.55,0,0,1,1.32-1.52,15.1,15.1,0,0,1,2-.27,1.12,1.12,0,0,1,1.31,1.12v0.1c0.14,1.35-.09,1.61-1.46,1.63a0.48,0.48,0,0,1-.29-0.26,0.64,0.64,0,0,1,0-.29c0-.74-0.2-0.87-0.94-0.59a0.48,0.48,0,0,0-.23.33,9.27,9.27,0,0,0,0,1.43,0.49,0.49,0,0,0,.39.31,8.29,8.29,0,0,0,1-.07,1.26,1.26,0,0,1,1.47,1.2,17.69,17.69,0,0,1,0,2.51,1.49,1.49,0,0,1-1.34,1.41c-0.64.1-1.28,0.19-1.93,0.26a1.11,1.11,0,0,1-1.36-1,6.71,6.71,0,0,1,0-1.23,0.93,0.93,0,0,1,.28-0.35,0.2,0.2,0,0,1,.1,0,2.45,2.45,0,0,1,1.24-.16A2.35,2.35,0,0,1,915.63,549.76Z" transform="translate(-852 -468.38)"/><path class="cls-6" d="M913,550.16a0.94,0.94,0,0,1,.06.12c0.08,1.37.08,1.36-1.29,1.58-0.84.13-1.68,0.26-2.52,0.41-0.32.06-.44,0-0.44-0.35q0-4,0-8a0.41,0.41,0,0,1,.41-0.47l3.46-.56c0.3,0,.41,0,0.39.35-0.08,1.34.07,1.1-1.12,1.3-1.35.22-1.35,0.22-1.35,1.59,0,0.7,0,.7.7,0.59a3.21,3.21,0,0,0,.35-0.06c0.34-.09.5,0,0.43,0.37a1.09,1.09,0,0,0,0,.15c0,1.12,0,.91-1,1.06a0.48,0.48,0,0,0-.52.58,10,10,0,0,1,0,1.28c0,0.38.13,0.46,0.49,0.39C911.68,550.34,912.32,550.26,913,550.16Z" transform="translate(-852 -468.38)"/><path class="cls-6" d="M907.07,547.38c0,0.22,0,.37,0,0.51,0,1,0,1-1,1.15a0.47,0.47,0,0,0-.48.56c0,0.93,0,1.88,0,2.81a0.44,0.44,0,0,1-.43.55c-1.35.25-1.35,0.26-1.35-1.09,0-2.32,0-4.64,0-7a0.58,0.58,0,0,1,.62-0.7c1-.15,2.07-0.33,3.11-0.53,0.36-.07.49,0,0.46,0.4-0.09,1.21.11,1-1.09,1.24s-1.31.22-1.31,1.48c0,0.87-.12.84,0.82,0.68Z" transform="translate(-852 -468.38)"/><path class="cls-6" d="M920.43,547c0-1.05,0-2.1,0-3.16,0-.35-0.06-0.49-0.45-0.45-0.9.11-.87,0.09-0.87-0.82a0.57,0.57,0,0,1,.62-0.69c1.13-.09,2.27-0.21,3.4-0.32,0.34,0,.5.07,0.43,0.42a2.31,2.31,0,0,0,0,.25c0,0.83,0,.85-0.86.89a0.44,0.44,0,0,0-.5.56c0,2.09,0,4.18,0,6.26a0.49,0.49,0,0,1-.54.62c-1.25.09-1.25,0.12-1.25-1.16V547Z" transform="translate(-852 -468.38)"/><path class="cls-6" d="M902.54,549c0,1.3,0,2.6,0,3.89a0.5,0.5,0,0,1-.51.63c-1.28.2-1.28,0.21-1.28-1.09,0-2.32,0-4.64,0-7a0.58,0.58,0,0,1,.59-0.73c1.2-.17,1.2-0.2,1.2,1V549Z" transform="translate(-852 -468.38)"/></g><path class="cls-7" d="M929.07,554.13c-15.89.09-31.78,5.43-47.67,5.53a0.35,0.35,0,1,1,0-.69c15.89-.09,31.78-5.43,47.67-5.53A0.35,0.35,0,1,1,929.07,554.13Z" transform="translate(-852 -468.38)"/><path class="cls-7" d="M929.07,552.74c-15.89.09-31.78,5.43-47.67,5.53a0.17,0.17,0,1,1,0-.35c15.89-.09,31.78-5.43,47.67-5.53A0.17,0.17,0,1,1,929.07,552.74Z" transform="translate(-852 -468.38)"/><path class="cls-7" d="M929.07,508.75c-15.89.09-31.78,5.43-47.67,5.53a0.35,0.35,0,1,1,0-.69c15.89-.09,31.78-5.43,47.67-5.53A0.35,0.35,0,1,1,929.07,508.75Z" transform="translate(-852 -468.38)"/><path class="cls-7" d="M929.07,509.79c-15.89.09-31.78,5.43-47.67,5.53a0.17,0.17,0,0,1-.18-0.17,0.18,0.18,0,0,1,.18-0.17c15.89-.09,31.78-5.43,47.67-5.53a0.17,0.17,0,0,1,.18.17A0.18,0.18,0,0,1,929.07,509.79Z" transform="translate(-852 -468.38)"/><path class="cls-7" d="M883.43,525.65c-1.49,0-2.42-1-2.42-2.73v-2.34c0-1.72.85-2.48,2.21-2.52q1.22,0,2.44-.11c1.38-.08,2.23.61,2.23,2.33v1.29a0.32,0.32,0,0,1-.29.32l-2,.25a0.26,0.26,0,0,1-.29-0.26v-1.46a0.23,0.23,0,0,0-.24-0.23l-1.2.05a0.27,0.27,0,0,0-.29.25v2.4a0.42,0.42,0,0,0,.48.46l1.44,0c1.51-.05,2.42.86,2.42,2.58v2.31c0,1.71-.85,2.57-2.21,2.65q-1.22.07-2.43,0.11c-1.38,0-2.23-.74-2.23-2.46v-1.29a0.3,0.3,0,0,1,.29-0.3l2-.15a0.26,0.26,0,0,1,.29.27v1.46a0.22,0.22,0,0,0,.24.23l1.22-.06a0.27,0.27,0,0,0,.28-0.24v-2.38a0.4,0.4,0,0,0-.48-0.44Z" transform="translate(-852 -468.38)"/><path class="cls-7" d="M892.32,519.54a0.27,0.27,0,0,0-.24.27v2.51a0.23,0.23,0,0,0,.29.24l1.61-.21a0.21,0.21,0,0,1,.28.24l-0.11,1.69a0.36,0.36,0,0,1-.31.3l-1.51.19a0.27,0.27,0,0,0-.24.27v2.73a0.21,0.21,0,0,0,.24.25q1.55-.19,3.1-0.41a0.21,0.21,0,0,1,.28.24q-0.06.85-.11,1.69a0.36,0.36,0,0,1-.31.3c-1.84.26-3.68,0.49-5.52,0.68a0.23,0.23,0,0,1-.28-0.25V517.92a0.28,0.28,0,0,1,.28-0.3c1.89-.19,3.78-0.43,5.66-0.7a0.21,0.21,0,0,1,.28.24q-0.06.85-.11,1.7a0.37,0.37,0,0,1-.31.3Z" transform="translate(-852 -468.38)"/><path class="cls-7" d="M899.11,529.26c-1.36.22-2.21-.43-2.21-2.15v-7.93a2.52,2.52,0,0,1,2.21-2.83l2.34-.38c1.36-.23,2.23.4,2.23,2.11v1.37a0.34,0.34,0,0,1-.29.33l-2,.41a0.22,0.22,0,0,1-.3-0.23v-1.48a0.22,0.22,0,0,0-.29-0.19l-1.05.17a0.28,0.28,0,0,0-.24.28v8a0.22,0.22,0,0,0,.29.23l1-.17a0.3,0.3,0,0,0,.26-0.28v-1.37a0.33,0.33,0,0,1,.3-0.33l2-.41a0.23,0.23,0,0,1,.29.23V526a2.58,2.58,0,0,1-2.23,2.87Z" transform="translate(-852 -468.38)"/><path class="cls-7" d="M907.46,527.86c-1.37.23-2.21-.4-2.21-2.11V515.58a0.29,0.29,0,0,1,.28-0.31l2-.35a0.21,0.21,0,0,1,.28.21v10.2a0.22,0.22,0,0,0,.29.19l1.22-.2a0.27,0.27,0,0,0,.24-0.28q0-5.1,0-10.2a0.32,0.32,0,0,1,.3-0.31l2-.32a0.21,0.21,0,0,1,.3.21v10.16a2.54,2.54,0,0,1-2.23,2.85Z" transform="translate(-852 -468.38)"/><path class="cls-7" d="M916.91,524a0.31,0.31,0,0,0-.29.28v1.86a0.3,0.3,0,0,1-.28.31l-2,.29a0.23,0.23,0,0,1-.28-0.24V514.17a0.33,0.33,0,0,1,.28-0.32q2.13-.31,4.26-0.57c1.37-.16,2.23.53,2.23,2.24v5.55a2.38,2.38,0,0,1-.79,2,0.3,0.3,0,0,0-.05.36l0.92,2.17a0.21,0.21,0,0,1-.18.33l-2,.23a0.32,0.32,0,0,1-.35-0.2l-0.79-1.89a0.19,0.19,0,0,0-.22-0.12Zm1.27-8.2a0.23,0.23,0,0,0-.29-0.24l-1,.13a0.27,0.27,0,0,0-.24.27v5.59a0.23,0.23,0,0,0,.29.24l1-.13a0.28,0.28,0,0,0,.24-0.31v-5.55Z" transform="translate(-852 -468.38)"/><path class="cls-7" d="M925.3,514.89a0.25,0.25,0,0,0-.24.25v2.51a0.25,0.25,0,0,0,.29.26l1.61-.07a0.24,0.24,0,0,1,.28.27l-0.11,1.68a0.32,0.32,0,0,1-.31.27l-1.51.07a0.25,0.25,0,0,0-.24.25v2.73a0.23,0.23,0,0,0,.24.26q1.55-.08,3.1-0.11a0.24,0.24,0,0,1,.28.27l-0.11,1.68a0.31,0.31,0,0,1-.31.26c-1.84,0-3.68.13-5.52,0.28a0.23,0.23,0,0,1-.28-0.25V513.15a0.28,0.28,0,0,1,.28-0.3c1.89-.15,3.77-0.25,5.66-0.28a0.24,0.24,0,0,1,.28.27l-0.11,1.68a0.31,0.31,0,0,1-.31.26Q926.78,514.81,925.3,514.89Z" transform="translate(-852 -468.38)"/><path class="cls-7" d="M883.62,540.13c-1.48,0-2.39-1-2.39-2.69v-2.31c0-1.69.84-2.46,2.19-2.5q1.2,0,2.4-.11c1.37-.09,2.21.6,2.21,2.3v1.28a0.32,0.32,0,0,1-.29.32l-2,.25a0.26,0.26,0,0,1-.29-0.26V535a0.22,0.22,0,0,0-.24-0.22l-1.18.06a0.27,0.27,0,0,0-.29.25v2.37a0.42,0.42,0,0,0,.47.46l1.42,0c1.49-.05,2.39.85,2.39,2.54v2.28c0,1.69-.84,2.54-2.19,2.62q-1.2.07-2.4,0.11c-1.37,0-2.2-.73-2.2-2.42v-1.28a0.3,0.3,0,0,1,.29-0.29l2-.15a0.25,0.25,0,0,1,.29.26v1.44a0.22,0.22,0,0,0,.24.23l1.2-.06a0.27,0.27,0,0,0,.27-0.23v-2.35a0.39,0.39,0,0,0-.47-0.43Z" transform="translate(-852 -468.38)"/><path class="cls-7" d="M892.4,534.09a0.26,0.26,0,0,0-.24.27v2.48a0.23,0.23,0,0,0,.29.24l1.58-.2a0.21,0.21,0,0,1,.27.24l-0.11,1.67a0.35,0.35,0,0,1-.31.3l-1.49.19a0.27,0.27,0,0,0-.24.27v2.7a0.21,0.21,0,0,0,.24.25q1.53-.19,3.06-0.41a0.21,0.21,0,0,1,.27.23c0,0.56-.07,1.12-0.11,1.67a0.36,0.36,0,0,1-.31.3c-1.82.26-3.63,0.49-5.45,0.67a0.22,0.22,0,0,1-.27-0.25v-12.2a0.28,0.28,0,0,1,.27-0.3c1.86-.19,3.73-0.43,5.59-0.7a0.21,0.21,0,0,1,.27.23c0,0.56-.07,1.12-0.11,1.67a0.36,0.36,0,0,1-.31.3Z" transform="translate(-852 -468.38)"/><path class="cls-7" d="M897.24,544a0.21,0.21,0,0,1-.27-0.23v-10a2.49,2.49,0,0,1,2.19-2.8l2.31-.38c1.35-.23,2.2.39,2.2,2.09v10a0.33,0.33,0,0,1-.29.32l-2,.33a0.22,0.22,0,0,1-.29-0.22V541a0.22,0.22,0,0,0-.29-0.22l-1,.17a0.28,0.28,0,0,0-.24.28v2.13a0.31,0.31,0,0,1-.27.32Zm3.86-5.72V533a0.2,0.2,0,0,0-.25-0.19l-1.08.18a0.28,0.28,0,0,0-.24.27v5.23a0.22,0.22,0,0,0,.29.23l1-.17A0.31,0.31,0,0,0,901.11,538.26Z" transform="translate(-852 -468.38)"/><path class="cls-7" d="M908.3,539.79a0.32,0.32,0,0,0-.29.29v1.84a0.3,0.3,0,0,1-.27.32l-2,.34a0.22,0.22,0,0,1-.27-0.23v-12.2a0.33,0.33,0,0,1,.27-0.32l4.21-.71c1.35-.22,2.2.41,2.2,2.1v5.48a2.47,2.47,0,0,1-.78,2,0.31,0.31,0,0,0-.05.36l0.91,2.1a0.22,0.22,0,0,1-.18.34l-2,.33a0.3,0.3,0,0,1-.35-0.18l-0.78-1.84a0.18,0.18,0,0,0-.22-0.11Zm1.26-8.15a0.22,0.22,0,0,0-.29-0.22l-1,.17a0.28,0.28,0,0,0-.24.28v5.52a0.22,0.22,0,0,0,.29.22l1-.17a0.29,0.29,0,0,0,.24-0.31v-5.48Z" transform="translate(-852 -468.38)"/><path class="cls-7" d="M915.86,541c-1.35.19-2.19-.45-2.19-2.14V531a2.45,2.45,0,0,1,2.19-2.77l2.31-.3c1.35-.16,2.2.52,2.2,2.21v1.35a0.31,0.31,0,0,1-.29.3l-2,.3a0.23,0.23,0,0,1-.29-0.24v-1.46a0.22,0.22,0,0,0-.29-0.2l-1,.14a0.27,0.27,0,0,0-.24.27v7.87a0.23,0.23,0,0,0,.29.23l1-.13a0.29,0.29,0,0,0,.26-0.27v-1.35a0.3,0.3,0,0,1,.29-0.31l2-.3a0.24,0.24,0,0,1,.29.24v1.38a2.39,2.39,0,0,1-2.2,2.71Z" transform="translate(-852 -468.38)"/><path class="cls-7" d="M924.84,534.65a0.29,0.29,0,0,0-.29.27v4.86a0.27,0.27,0,0,1-.27.29l-2,.15A0.24,0.24,0,0,1,922,540v-12.2a0.3,0.3,0,0,1,.27-0.3l2-.15a0.23,0.23,0,0,1,.27.25v4.63a0.25,0.25,0,0,0,.29.25l1.26-.06a0.27,0.27,0,0,0,.25-0.28v-4.63a0.27,0.27,0,0,1,.25-0.28l2-.05a0.24,0.24,0,0,1,.25.27v12.2a0.25,0.25,0,0,1-.25.28l-2,.05a0.24,0.24,0,0,1-.25-0.26v-4.85a0.26,0.26,0,0,0-.29-0.26Z" transform="translate(-852 -468.38)"/><g id="XMrHip-2" data-name="XMrHip"><path class="cls-8" d="M885.51,551.53c-0.18.45-.34,0.91-0.55,1.35a0.87,0.87,0,0,1-.42.41,0.43,0.43,0,0,1-.59-0.33c-0.16-.45-0.36-0.88-0.54-1.32l-0.16,0c0,0.16,0,.33,0,0.49,0,0.91,0,1.81,0,2.72a0.37,0.37,0,0,1-.46.46,7,7,0,0,0-.94,0,0.33,0.33,0,0,1-.4-0.4q0-4,0-8.05a0.35,0.35,0,0,1,.41-0.41c1.32-.08,1.32-0.1,1.7,1.16l0.72,2.38a0.77,0.77,0,0,0,.28.42c0.05-.14.11-0.29,0.16-0.43,0.32-1.05.65-2.1,0.93-3.17a0.61,0.61,0,0,1,.64-0.54c1.25-.08,1.25-0.1,1.25,1.15q0,3.48,0,7c0,0.66,0,.66-0.63.71-1.15.08-1.15,0.08-1.15-1.09,0-.68,0-1.35,0-2,0-.15,0-0.3,0-0.46Z" transform="translate(-852 -468.38)"/><path class="cls-8" d="M896.4,550.26V553c0,1.09,0,1.09-1.09,1.25-0.69.1-.69,0.1-0.69-0.6,0-2.53,0-5.07,0-7.6a0.52,0.52,0,0,1,.54-0.65c1-.11.78-0.15,1.09,0.58s0.71,1.66,1.06,2.5c0.06,0.15.15,0.28,0.23,0.42l0.14,0c0-.16,0-0.33,0-0.5,0-.94,0-1.88,0-2.81a0.49,0.49,0,0,1,.5-0.6c1.28-.2,1.28-0.22,1.28,1.06,0,2.35,0,4.71,0,7.06a0.52,0.52,0,0,1-.55.64c-0.91.1-.74,0.24-1.09-0.56l-1.07-2.49a4.42,4.42,0,0,0-.23-0.42Z" transform="translate(-852 -468.38)"/><path class="cls-8" d="M893.37,550.6c0,1.12,0,2.24,0,3.35a0.47,0.47,0,0,1-.49.58c-1.29.15-1.31,0.16-1.29-1.13,0-.42-0.1-0.56-0.55-0.51a0.51,0.51,0,0,0-.56.63c0,1.31,0,1.31-1.32,1.43-0.34,0-.46-0.06-0.46-0.41,0-2.25,0-4.5,0-6.76a1.65,1.65,0,0,1,1.72-1.83c0.46-.05.92-0.11,1.38-0.15a1.2,1.2,0,0,1,1.53,1.3c0,1.16,0,2.33,0,3.5h0Zm-1.79-1.24c0-.54,0-1.08,0-1.63,0-.37-0.19-0.39-0.46-0.32s-0.64-.09-0.63.43c0,1.08,0,2.17,0,3.25,0,0.51.38,0.28,0.64,0.29a0.37,0.37,0,0,0,.46-0.44C891.57,550.42,891.59,549.89,891.59,549.36Z" transform="translate(-852 -468.38)"/><path class="cls-8" d="M924.28,545.61c0-.91,0-1.81,0-2.72a1.59,1.59,0,0,1,1.76-1.83c0.46,0,.92,0,1.38,0a1.4,1.4,0,0,1,1.64,1.57c0,1.17,0,2.34,0,3.51,0,0.71,0,1.42,0,2.12a1.49,1.49,0,0,1-1.7,1.66l-1.43.05a1.37,1.37,0,0,1-1.65-1.5s0-.07,0-0.1v-2.72Zm3-3.07a5.47,5.47,0,0,1-.62,0c-0.46,0-.63.13-0.62,0.62q0,2.34,0,4.68c0,0.49.19,0.57,0.61,0.54s0.66,0,.64-0.55c0-1.16,0-2.33,0-3.5v-1.8Z" transform="translate(-852 -468.38)"/><path class="cls-8" d="M915.63,549.42a5.77,5.77,0,0,0,.84-0.13,0.52,0.52,0,0,0,.26-0.35,7.94,7.94,0,0,0,0-1.38,0.49,0.49,0,0,0-.39-0.33,5.23,5.23,0,0,0-.93.09A1.32,1.32,0,0,1,913.8,546a21.61,21.61,0,0,1,0-2.32,1.55,1.55,0,0,1,1.32-1.52,15.12,15.12,0,0,1,2-.27,1.12,1.12,0,0,1,1.31,1.12v0.1c0.14,1.35-.09,1.61-1.46,1.63a0.48,0.48,0,0,1-.29-0.26,0.64,0.64,0,0,1,0-.29c0-.74-0.2-0.87-0.94-0.59a0.48,0.48,0,0,0-.23.33,9.26,9.26,0,0,0,0,1.43,0.48,0.48,0,0,0,.39.31,8.48,8.48,0,0,0,1-.07,1.26,1.26,0,0,1,1.47,1.2,17.7,17.7,0,0,1,0,2.51,1.49,1.49,0,0,1-1.34,1.41c-0.64.1-1.28,0.19-1.93,0.26a1.12,1.12,0,0,1-1.36-1,6.71,6.71,0,0,1,0-1.23,0.93,0.93,0,0,1,.28-0.35,0.19,0.19,0,0,1,.1,0,2.42,2.42,0,0,1,1.24-.16A2.34,2.34,0,0,1,915.63,549.42Z" transform="translate(-852 -468.38)"/><path class="cls-8" d="M913,549.81a0.85,0.85,0,0,1,.06.12c0.08,1.37.08,1.36-1.29,1.58-0.84.13-1.68,0.26-2.52,0.41-0.32.06-.44,0-0.44-0.35q0-4,0-8a0.41,0.41,0,0,1,.41-0.47l3.46-.56c0.3,0,.41,0,0.39.35-0.08,1.34.07,1.1-1.12,1.3-1.35.22-1.35,0.22-1.35,1.59,0,0.7,0,.7.7,0.59a3,3,0,0,0,.35-0.06c0.34-.09.5,0,0.43,0.37a1.08,1.08,0,0,0,0,.15c0,1.12,0,.91-1,1.06a0.48,0.48,0,0,0-.52.58,10,10,0,0,1,0,1.28c0,0.38.13,0.46,0.49,0.4C911.68,550,912.32,549.91,913,549.81Z" transform="translate(-852 -468.38)"/><path class="cls-8" d="M907.07,547c0,0.22,0,.37,0,0.51,0,1,0,1-1,1.16a0.47,0.47,0,0,0-.48.56c0,0.93,0,1.88,0,2.81a0.44,0.44,0,0,1-.43.55c-1.35.25-1.35,0.26-1.35-1.09,0-2.32,0-4.64,0-7a0.58,0.58,0,0,1,.62-0.7c1-.15,2.07-0.33,3.11-0.53,0.36-.07.49,0,0.46,0.4-0.09,1.21.11,1-1.09,1.24s-1.31.22-1.31,1.48c0,0.87-.12.84,0.82,0.68Z" transform="translate(-852 -468.38)"/><path class="cls-8" d="M920.43,546.65c0-1.05,0-2.1,0-3.16,0-.35-0.06-0.49-0.45-0.45-0.9.11-.87,0.09-0.87-0.82a0.57,0.57,0,0,1,.62-0.69c1.13-.09,2.27-0.21,3.4-0.32,0.34,0,.5.07,0.43,0.42a2.31,2.31,0,0,0,0,.25c0,0.83,0,.85-0.86.89a0.44,0.44,0,0,0-.5.56c0,2.09,0,4.18,0,6.26a0.49,0.49,0,0,1-.54.62c-1.25.09-1.25,0.12-1.25-1.16v-2.42Z" transform="translate(-852 -468.38)"/><path class="cls-8" d="M902.54,548.63c0,1.3,0,2.6,0,3.89a0.5,0.5,0,0,1-.51.63c-1.28.2-1.28,0.21-1.28-1.09,0-2.32,0-4.64,0-7a0.58,0.58,0,0,1,.59-0.73c1.2-.17,1.2-0.2,1.2,1v3.25Z" transform="translate(-852 -468.38)"/></g><path d="M929.07,553.78c-15.89.09-31.78,5.43-47.67,5.53a0.35,0.35,0,1,1,0-.69c15.89-.09,31.78-5.43,47.67-5.53A0.35,0.35,0,1,1,929.07,553.78Z" transform="translate(-852 -468.38)"/><path d="M929.07,552.4c-15.89.09-31.78,5.43-47.67,5.53a0.17,0.17,0,0,1-.18-0.17,0.18,0.18,0,0,1,.18-0.17c15.89-.09,31.78-5.43,47.67-5.53A0.17,0.17,0,1,1,929.07,552.4Z" transform="translate(-852 -468.38)"/><path d="M929.07,508.4c-15.89.09-31.78,5.43-47.67,5.53a0.36,0.36,0,0,1-.42-0.34,0.36,0.36,0,0,1,.42-0.35c15.89-.09,31.78-5.43,47.67-5.53A0.35,0.35,0,1,1,929.07,508.4Z" transform="translate(-852 -468.38)"/><path d="M929.07,509.44c-15.89.09-31.78,5.43-47.67,5.53a0.17,0.17,0,0,1-.18-0.17,0.18,0.18,0,0,1,.18-0.17c15.89-.09,31.78-5.43,47.67-5.53a0.17,0.17,0,0,1,.18.17A0.18,0.18,0,0,1,929.07,509.44Z" transform="translate(-852 -468.38)"/><path class="cls-9" d="M883.43,525.3c-1.49,0-2.42-1-2.42-2.73v-2.34c0-1.72.85-2.48,2.21-2.52q1.22,0,2.44-.11c1.38-.08,2.23.61,2.23,2.33v1.29a0.32,0.32,0,0,1-.29.32l-2,.25a0.26,0.26,0,0,1-.29-0.26v-1.46a0.23,0.23,0,0,0-.24-0.23l-1.2.05a0.27,0.27,0,0,0-.29.25v2.4a0.42,0.42,0,0,0,.48.46l1.44,0c1.51-.05,2.42.86,2.42,2.58v2.31c0,1.71-.85,2.57-2.21,2.65q-1.22.07-2.43,0.11c-1.38,0-2.23-.74-2.23-2.46v-1.29a0.3,0.3,0,0,1,.29-0.3l2-.15a0.26,0.26,0,0,1,.29.27v1.46a0.22,0.22,0,0,0,.24.23l1.22-.06a0.27,0.27,0,0,0,.28-0.24v-2.38a0.4,0.4,0,0,0-.48-0.44Z" transform="translate(-852 -468.38)"/><path class="cls-9" d="M892.32,519.19a0.27,0.27,0,0,0-.24.27V522a0.23,0.23,0,0,0,.29.24L894,522a0.21,0.21,0,0,1,.28.24l-0.11,1.69a0.36,0.36,0,0,1-.31.3l-1.51.19a0.27,0.27,0,0,0-.24.27v2.73a0.21,0.21,0,0,0,.24.25q1.55-.19,3.1-0.41a0.21,0.21,0,0,1,.28.24q-0.06.85-.11,1.69a0.36,0.36,0,0,1-.31.3c-1.84.26-3.68,0.49-5.52,0.68a0.23,0.23,0,0,1-.28-0.25V517.57a0.28,0.28,0,0,1,.28-0.3c1.89-.19,3.78-0.43,5.66-0.7a0.21,0.21,0,0,1,.28.24q-0.06.85-.11,1.7a0.36,0.36,0,0,1-.31.3Q893.79,519,892.32,519.19Z" transform="translate(-852 -468.38)"/><path class="cls-9" d="M899.11,528.92c-1.36.22-2.21-.43-2.21-2.14v-7.93a2.52,2.52,0,0,1,2.21-2.83l2.34-.38c1.36-.23,2.23.4,2.23,2.11v1.37a0.34,0.34,0,0,1-.29.33l-2,.41a0.22,0.22,0,0,1-.3-0.23v-1.48a0.22,0.22,0,0,0-.29-0.19l-1.05.17a0.28,0.28,0,0,0-.24.28v8a0.22,0.22,0,0,0,.29.23l1-.17a0.3,0.3,0,0,0,.26-0.28v-1.37a0.33,0.33,0,0,1,.3-0.33l2-.41a0.23,0.23,0,0,1,.29.23v1.4a2.58,2.58,0,0,1-2.23,2.87Z" transform="translate(-852 -468.38)"/><path class="cls-9" d="M907.46,527.51c-1.37.23-2.21-.4-2.21-2.11V515.23a0.29,0.29,0,0,1,.28-0.31l2-.35a0.21,0.21,0,0,1,.28.21V525a0.22,0.22,0,0,0,.29.19l1.22-.2a0.27,0.27,0,0,0,.24-0.28q0-5.1,0-10.21a0.32,0.32,0,0,1,.3-0.31l2-.33a0.22,0.22,0,0,1,.3.21v10.17a2.54,2.54,0,0,1-2.23,2.85Z" transform="translate(-852 -468.38)"/><path class="cls-9" d="M916.91,523.67a0.31,0.31,0,0,0-.29.28v1.86a0.3,0.3,0,0,1-.28.31l-2,.29a0.23,0.23,0,0,1-.28-0.24V513.82a0.33,0.33,0,0,1,.28-0.32q2.13-.31,4.26-0.57c1.37-.16,2.23.53,2.23,2.24v5.55a2.38,2.38,0,0,1-.79,2,0.3,0.3,0,0,0-.05.36l0.92,2.17a0.21,0.21,0,0,1-.18.33l-2,.23a0.32,0.32,0,0,1-.35-0.2l-0.79-1.89a0.19,0.19,0,0,0-.22-0.12Zm1.27-8.2a0.23,0.23,0,0,0-.29-0.24l-1,.13a0.27,0.27,0,0,0-.24.27v5.59a0.23,0.23,0,0,0,.29.24l1-.13a0.28,0.28,0,0,0,.24-0.31v-5.55Z" transform="translate(-852 -468.38)"/><path class="cls-9" d="M925.3,514.54a0.25,0.25,0,0,0-.24.25v2.51a0.25,0.25,0,0,0,.29.26l1.61-.07a0.24,0.24,0,0,1,.28.27l-0.11,1.68a0.32,0.32,0,0,1-.31.27l-1.51.07a0.25,0.25,0,0,0-.24.25v2.73a0.23,0.23,0,0,0,.24.26q1.55-.08,3.1-0.11a0.24,0.24,0,0,1,.28.27l-0.11,1.68a0.31,0.31,0,0,1-.31.26c-1.84,0-3.68.13-5.52,0.28a0.23,0.23,0,0,1-.28-0.25V512.8a0.28,0.28,0,0,1,.28-0.3c1.89-.16,3.77-0.25,5.66-0.28a0.24,0.24,0,0,1,.28.27l-0.11,1.68a0.31,0.31,0,0,1-.31.26Q926.78,514.46,925.3,514.54Z" transform="translate(-852 -468.38)"/><path class="cls-9" d="M883.62,539.78c-1.48,0-2.39-1-2.39-2.69v-2.31c0-1.7.84-2.46,2.19-2.5q1.2,0,2.4-.11c1.37-.09,2.21.6,2.21,2.3v1.28a0.32,0.32,0,0,1-.29.32l-2,.25a0.26,0.26,0,0,1-.29-0.26v-1.44a0.23,0.23,0,0,0-.24-0.22l-1.18.06a0.27,0.27,0,0,0-.29.25v2.37a0.42,0.42,0,0,0,.47.46l1.42,0c1.49-.05,2.39.84,2.39,2.54v2.28c0,1.69-.84,2.54-2.19,2.62q-1.2.07-2.4,0.11c-1.37,0-2.2-.73-2.2-2.42v-1.28a0.3,0.3,0,0,1,.29-0.29l2-.15a0.25,0.25,0,0,1,.29.26v1.44a0.22,0.22,0,0,0,.24.23l1.2-.06a0.27,0.27,0,0,0,.27-0.23v-2.35a0.39,0.39,0,0,0-.47-0.43Z" transform="translate(-852 -468.38)"/><path class="cls-9" d="M892.4,533.74a0.27,0.27,0,0,0-.24.27v2.48a0.23,0.23,0,0,0,.29.24l1.58-.21a0.21,0.21,0,0,1,.27.24l-0.11,1.67a0.36,0.36,0,0,1-.31.3l-1.49.19a0.27,0.27,0,0,0-.24.27v2.7a0.21,0.21,0,0,0,.24.24c1-.12,2-0.26,3.06-0.41a0.21,0.21,0,0,1,.27.23c0,0.56-.07,1.12-0.11,1.67a0.36,0.36,0,0,1-.31.3c-1.82.26-3.63,0.49-5.45,0.67a0.22,0.22,0,0,1-.27-0.25v-12.2a0.28,0.28,0,0,1,.27-0.3c1.86-.19,3.73-0.43,5.59-0.7a0.21,0.21,0,0,1,.27.23c0,0.56-.07,1.12-0.11,1.67a0.36,0.36,0,0,1-.31.3Z" transform="translate(-852 -468.38)"/><path class="cls-9" d="M897.24,543.63a0.21,0.21,0,0,1-.27-0.23v-10a2.49,2.49,0,0,1,2.19-2.8l2.31-.38c1.35-.22,2.2.39,2.2,2.09v10a0.33,0.33,0,0,1-.29.32l-2,.33a0.22,0.22,0,0,1-.29-0.22v-2.09a0.22,0.22,0,0,0-.29-0.22l-1,.17a0.28,0.28,0,0,0-.24.28V543a0.31,0.31,0,0,1-.27.32Zm3.86-5.72v-5.23a0.2,0.2,0,0,0-.25-0.19l-1.08.18a0.28,0.28,0,0,0-.24.28v5.23a0.22,0.22,0,0,0,.29.23l1-.17A0.31,0.31,0,0,0,901.11,537.91Z" transform="translate(-852 -468.38)"/><path class="cls-9" d="M908.3,539.44a0.31,0.31,0,0,0-.29.29v1.84a0.3,0.3,0,0,1-.27.32l-2,.34a0.22,0.22,0,0,1-.27-0.23V529.8a0.33,0.33,0,0,1,.27-0.32l4.21-.71c1.35-.22,2.2.41,2.2,2.1v5.48a2.47,2.47,0,0,1-.78,2,0.31,0.31,0,0,0-.05.35l0.91,2.1a0.22,0.22,0,0,1-.18.34l-2,.33a0.3,0.3,0,0,1-.35-0.18l-0.78-1.84a0.18,0.18,0,0,0-.22-0.11Zm1.26-8.15a0.22,0.22,0,0,0-.29-0.22l-1,.17a0.28,0.28,0,0,0-.24.28V537a0.22,0.22,0,0,0,.29.22l1-.17a0.29,0.29,0,0,0,.24-0.31v-5.48Z" transform="translate(-852 -468.38)"/><path class="cls-9" d="M915.86,540.61c-1.35.19-2.19-.45-2.19-2.14v-7.83a2.45,2.45,0,0,1,2.19-2.77l2.31-.3c1.35-.16,2.2.51,2.2,2.21v1.35a0.31,0.31,0,0,1-.29.3l-2,.3a0.23,0.23,0,0,1-.29-0.24V530a0.22,0.22,0,0,0-.29-0.2l-1,.13a0.27,0.27,0,0,0-.24.27v7.87a0.23,0.23,0,0,0,.29.23l1-.13a0.29,0.29,0,0,0,.26-0.27v-1.35a0.3,0.3,0,0,1,.29-0.31l2-.3a0.24,0.24,0,0,1,.29.24v1.38a2.39,2.39,0,0,1-2.2,2.71Z" transform="translate(-852 -468.38)"/><path class="cls-9" d="M924.84,534.3a0.29,0.29,0,0,0-.29.27v4.86a0.27,0.27,0,0,1-.27.29l-2,.16a0.24,0.24,0,0,1-.27-0.25V527.43a0.3,0.3,0,0,1,.27-0.3l2-.15a0.23,0.23,0,0,1,.27.25v4.63a0.25,0.25,0,0,0,.29.25l1.26-.06a0.27,0.27,0,0,0,.25-0.28v-4.63a0.27,0.27,0,0,1,.25-0.28l2-.05a0.24,0.24,0,0,1,.25.27v12.2a0.25,0.25,0,0,1-.25.28l-2,.05a0.24,0.24,0,0,1-.25-0.26V534.5a0.26,0.26,0,0,0-.29-0.26Z" transform="translate(-852 -468.38)"/><text class="cls-10" transform="translate(99.3 92.28)">Consecte<tspan x="50.69" y="0">t</tspan><tspan x="54.38" y="0">ur adipiscing elit. </tspan><tspan x="0" y="14.4">Sed ut orci ac neque tincid</tspan><tspan x="141.38" y="14.4">-</tspan><tspan x="0" y="28.8">unt gr</tspan><tspan x="31.34" y="28.8">a</tspan><tspan x="37.1" y="28.8">vida non vi</tspan><tspan x="93.79" y="28.8">t</tspan><tspan x="98.03" y="28.8">ae tellus. </tspan><tspan x="0" y="43.2">Nam sem dui, </tspan><tspan x="78.02" y="43.2">v</tspan><tspan class="cls-11" x="83.78" y="43.2">arius.  </tspan><tspan class="cls-12"><tspan x="0" y="57.6">R</tspan><tspan x="7.76" y="57.6">ead more</tspan><tspan class="cls-13" x="58.45" y="57.6">.</tspan></tspan></text><text class="cls-14" transform="translate(99.3 47.17)">W<tspan x="15.36" y="0">e Hold these</tspan><tspan class="cls-15" x="106.07" y="0"> </tspan><tspan class="cls-15" x="108.59" y="0">T</tspan><tspan x="115.65" y="0">r</tspan><tspan x="120.58" y="0">uths </tspan><tspan x="0" y="19.2">to be Self Evident:</tspan></text></svg>