<?xml version="1.0" encoding="utf-8"?>
<!-- Generator: Adobe Illustrator 18.1.1, SVG Export Plug-In . SVG Version: 6.00 Build 0)  -->
<!DOCTYPE svg PUBLIC "-//W3C//DTD SVG 1.1//EN" "http://www.w3.org/Graphics/SVG/1.1/DTD/svg11.dtd">
<svg version="1.1" id="Layer_1" xmlns="http://www.w3.org/2000/svg" xmlns:xlink="http://www.w3.org/1999/xlink" x="0px" y="0px"
	 width="110px" height="18px" viewBox="-579 491 110 18" enable-background="new -579 491 110 18" xml:space="preserve">
<g>
	<path fill="#FFFFFF" d="M-578,507.7v-15.5h5.8c2.5,0,4.5,0.7,4.5,4c0,1.8-0.9,3.1-2.6,3.4v0c2.3,0.3,2.9,1.8,2.9,3.9
		c0,3.9-3.4,4.1-4.8,4.1L-578,507.7L-578,507.7z M-574.8,498.6h2.2c0.7,0,1.7-0.5,1.7-2c0-1.1-0.8-2-1.9-2h-2V498.6z M-574.8,505.4
		h1.8c0.7,0,2.2,0,2.2-2.2c0-1.4-0.5-2.2-2.1-2.2h-1.9V505.4z"/>
	<path fill="#FFFFFF" d="M-562.6,507.7h-3.2v-15.5h6c2.2,0,3.6,1.4,3.6,4.1c0,2-0.8,3.5-2.9,3.8v0c0.7,0.1,2.8,0.3,2.8,3
		c0,1,0.1,3.9,0.4,4.5h-3.2c-0.4-0.9-0.3-2-0.3-3c0-1.8,0.2-3.4-2.3-3.4h-0.8C-562.6,501.3-562.6,507.7-562.6,507.7z M-562.6,498.9
		h1.4c1.3,0,1.7-1.3,1.7-2.3c0-1.5-0.6-2-1.7-2h-1.4V498.9z"/>
	<path fill="#FFFFFF" d="M-554.7,507.7v-15.5h3.2v15.5H-554.7z"/>
	<path fill="#FFFFFF" d="M-542.5,497c0-1.4-0.2-2.7-1.9-2.7c-2,0-2,2.7-2,5.7c0,4.8,0.5,5.7,2.3,5.7c0.5,0,1.1-0.1,1.6-0.3V502h-1.8
		v-2.4h5v7.8c-0.9,0.2-3.1,0.5-4.4,0.5c-5.5,0-6.1-2.3-6.1-8.1c0-3.9,0.2-7.9,5.5-7.9c3.2,0,5.2,1.8,5,5H-542.5z"/>
	<path fill="#FFFFFF" d="M-530.7,498.5v-6.2h3.2v15.5h-3.2v-6.9h-3.7v6.9h-3.2v-15.5h3.2v6.2C-534.4,498.5-530.7,498.5-530.7,498.5z
		"/>
	<path fill="#FFFFFF" d="M-515.4,492.3v2.6h-3.6v12.9h-3.2v-12.9h-3.6v-2.6H-515.4z"/>
	<path fill="#FFFFFF" d="M-513.5,507.7v-15.5h8.5v2.4h-5.2v3.8h4.8v2.4h-4.8v4.5h5.4v2.4H-513.5z"/>
	<path fill="#FFFFFF" d="M-503.1,492.3h5.4c4.3,0,5,2.8,5,7.7c0,2.4,0.4,7.8-5.2,7.8h-5.3V492.3z M-499.9,505.4h1.6
		c2,0,2.4-1.5,2.4-5.4c0-2.9,0-5.4-2.3-5.4h-1.7L-499.9,505.4L-499.9,505.4z"/>
	<path fill="#FFFFFF" d="M-483.8,497c0-1.4-0.2-2.7-1.9-2.7c-2,0-2,2.7-2,5.7c0,4.8,0.5,5.7,2.3,5.7c0.5,0,1.1-0.1,1.6-0.3V502h-1.8
		v-2.4h5v7.8c-0.9,0.2-3.1,0.5-4.4,0.5c-5.5,0-6.1-2.3-6.1-8.1c0-3.9,0.2-7.9,5.5-7.9c3.2,0,5.2,1.8,5,5H-483.8z"/>
	<path fill="#FFFFFF" d="M-478.6,507.7v-15.5h8.5v2.4h-5.2v3.8h4.8v2.4h-4.8v4.5h5.4v2.4H-478.6z"/>
</g>
</svg>
